solid OpenSCAD_Model
  facet normal 1 -0 0
    outer loop
      vertex 22 64 26
      vertex 22 64.2 23.8333
      vertex 22 64.2 26
    endloop
  endfacet
  facet normal 1 0 0
    outer loop
      vertex 22 64 26
      vertex 22 61.2 21.6667
      vertex 22 64.2 23.8333
    endloop
  endfacet
  facet normal 1 0 0
    outer loop
      vertex 22 64 26
      vertex 22 59.2 20.2222
      vertex 22 61.2 21.6667
    endloop
  endfacet
  facet normal 1 -0 0
    outer loop
      vertex 22 32 26
      vertex 22 59.2 20.2222
      vertex 22 64 26
    endloop
  endfacet
  facet normal 1 0 0
    outer loop
      vertex 22 59.2 20.2222
      vertex 22 46.6 13
      vertex 22 49.6 13
    endloop
  endfacet
  facet normal 1 0 0
    outer loop
      vertex 22 46.6 13
      vertex 22 38.2 12.4
      vertex 22 46.6 12.4
    endloop
  endfacet
  facet normal 1 0 0
    outer loop
      vertex 22 59.2 20.2222
      vertex 22 32 26
      vertex 22 46.6 13
    endloop
  endfacet
  facet normal 1 0 0
    outer loop
      vertex 22 38.2 12.4
      vertex 22 35.2 8.66667
      vertex 22 38.2 10.8333
    endloop
  endfacet
  facet normal 1 0 0
    outer loop
      vertex 22 25 20.6
      vertex 22 35.2 8.66667
      vertex 22 38.2 12.4
    endloop
  endfacet
  facet normal 1 0 0
    outer loop
      vertex 22 46.6 13
      vertex 22 32 26
      vertex 22 32 25
    endloop
  endfacet
  facet normal 1 0 0
    outer loop
      vertex 22 46.6 13
      vertex 22 32 25
      vertex 22 38.2 12.4
    endloop
  endfacet
  facet normal 1 -0 0
    outer loop
      vertex 22 25 20.6
      vertex 22 38.2 12.4
      vertex 22 32 25
    endloop
  endfacet
  facet normal 1 0 0
    outer loop
      vertex 22 25 20.6
      vertex 22 32 25
      vertex 22 25 25
    endloop
  endfacet
  facet normal 1 0 0
    outer loop
      vertex 22 35.2 8.66667
      vertex 22 25 20.6
      vertex 22 33.2 7.22222
    endloop
  endfacet
  facet normal 1 0 0
    outer loop
      vertex 22 25 20.6
      vertex 22 23.6 0
      vertex 22 33.2 7.22222
    endloop
  endfacet
  facet normal 1 0 0
    outer loop
      vertex 22 25 20.6
      vertex 22 20.6 0
      vertex 22 23.6 0
    endloop
  endfacet
  facet normal 1 -0 0
    outer loop
      vertex 22 0 20.6
      vertex 22 20.6 0
      vertex 22 25 20.6
    endloop
  endfacet
  facet normal 1 0 0
    outer loop
      vertex 22 0 -0.599999
      vertex 22 20.6 0
      vertex 22 0 20.6
    endloop
  endfacet
  facet normal 1 0 0
    outer loop
      vertex 22 20.6 0
      vertex 22 0 -0.599999
      vertex 22 20.6 -0.599999
    endloop
  endfacet
  facet normal -0 0 1
    outer loop
      vertex 0.599999 23 2.16667
      vertex 21.4 20 2.16667
      vertex 21.4 23 2.16667
    endloop
  endfacet
  facet normal 0 0 1
    outer loop
      vertex 21.4 20 2.16667
      vertex 0.599999 23 2.16667
      vertex 0.599999 20 2.16667
    endloop
  endfacet
  facet normal 0 0 -1
    outer loop
      vertex 0.599999 23.2 2.16667
      vertex 21.4 25.2462 2.16667
      vertex 21.4 23.2 2.16667
    endloop
  endfacet
  facet normal -0 0 -1
    outer loop
      vertex 21.4 25.2462 2.16667
      vertex 0.599999 23.2 2.16667
      vertex 0.599999 25.2462 2.16667
    endloop
  endfacet
  facet normal -0 0 1
    outer loop
      vertex 0.599999 20 0
      vertex 21.4 0 0
      vertex 21.4 20 0
    endloop
  endfacet
  facet normal 0 0 1
    outer loop
      vertex 21.4 0 0
      vertex 0.599999 20 0
      vertex 0.599999 0 0
    endloop
  endfacet
  facet normal 0 0 -1
    outer loop
      vertex 22 20.6 0
      vertex 21.4 23.2 0
      vertex 22 23.6 0
    endloop
  endfacet
  facet normal 0 0 -1
    outer loop
      vertex 22 20.6 0
      vertex 0.599999 23.2 0
      vertex 21.4 23.2 0
    endloop
  endfacet
  facet normal 0 0 -1
    outer loop
      vertex 0 20.6 0
      vertex 0.599999 23.2 0
      vertex 22 20.6 0
    endloop
  endfacet
  facet normal 0 0 -1
    outer loop
      vertex 0 23.6 0
      vertex 0.599999 23.2 0
      vertex 0 20.6 0
    endloop
  endfacet
  facet normal 0 0 -1
    outer loop
      vertex 0.599999 23.2 0
      vertex 0 23.6 0
      vertex 0.599999 23.6 0
    endloop
  endfacet
  facet normal -0 0 -1
    outer loop
      vertex 22 23.6 0
      vertex 21.4 23.2 0
      vertex 21.4 23.6 0
    endloop
  endfacet
  facet normal -1 0 0
    outer loop
      vertex 0 20.6 -0.599999
      vertex 0 0 -0.599999
      vertex 0 20.6 0
    endloop
  endfacet
  facet normal -1 -0 0
    outer loop
      vertex 0 38.2 10.8333
      vertex 0 35.2 8.66667
      vertex 0 38.2 12.4
    endloop
  endfacet
  facet normal -1 0 0
    outer loop
      vertex 0 46.6 12.4
      vertex 0 38.2 12.4
      vertex 0 46.6 13
    endloop
  endfacet
  facet normal -1 0 0
    outer loop
      vertex 0 64.2 23.8333
      vertex 0 64 26
      vertex 0 64.2 26
    endloop
  endfacet
  facet normal -1 0 0
    outer loop
      vertex 0 61.2 21.6667
      vertex 0 64 26
      vertex 0 64.2 23.8333
    endloop
  endfacet
  facet normal -1 0 0
    outer loop
      vertex 0 59.2 20.2222
      vertex 0 64 26
      vertex 0 61.2 21.6667
    endloop
  endfacet
  facet normal -1 0 0
    outer loop
      vertex 0 46.6 13
      vertex 0 59.2 20.2222
      vertex 0 49.6 13
    endloop
  endfacet
  facet normal -1 0 0
    outer loop
      vertex 0 32 26
      vertex 0 59.2 20.2222
      vertex 0 46.6 13
    endloop
  endfacet
  facet normal -1 0 0
    outer loop
      vertex 0 32 25
      vertex 0 46.6 13
      vertex 0 38.2 12.4
    endloop
  endfacet
  facet normal -1 0 0
    outer loop
      vertex 0 25 20.6
      vertex 0 35.2 8.66667
      vertex 0 33.2 7.22222
    endloop
  endfacet
  facet normal -1 0 0
    outer loop
      vertex 0 35.2 8.66667
      vertex 0 25 20.6
      vertex 0 38.2 12.4
    endloop
  endfacet
  facet normal -1 0 0
    outer loop
      vertex 0 32 26
      vertex 0 46.6 13
      vertex 0 32 25
    endloop
  endfacet
  facet normal -1 0 0
    outer loop
      vertex 0 59.2 20.2222
      vertex 0 32 26
      vertex 0 64 26
    endloop
  endfacet
  facet normal -1 0 0
    outer loop
      vertex 0 38.2 12.4
      vertex 0 25 20.6
      vertex 0 32 25
    endloop
  endfacet
  facet normal -1 0 0
    outer loop
      vertex 0 23.6 0
      vertex 0 25 20.6
      vertex 0 33.2 7.22222
    endloop
  endfacet
  facet normal -1 0 0
    outer loop
      vertex 0 20.6 0
      vertex 0 25 20.6
      vertex 0 23.6 0
    endloop
  endfacet
  facet normal -1 0 0
    outer loop
      vertex 0 0 20.6
      vertex 0 20.6 0
      vertex 0 0 -0.599999
    endloop
  endfacet
  facet normal -1 0 0
    outer loop
      vertex 0 20.6 0
      vertex 0 0 20.6
      vertex 0 25 20.6
    endloop
  endfacet
  facet normal -1 -0 0
    outer loop
      vertex 0 32 25
      vertex 0 25 20.6
      vertex 0 25 25
    endloop
  endfacet
  facet normal 0 1 -0
    outer loop
      vertex 21.4 23.2 0.688889
      vertex 0.599999 23.2 2.16667
      vertex 21.4 23.2 2.16667
    endloop
  endfacet
  facet normal 0 1 0
    outer loop
      vertex 0.599999 23.2 2.16667
      vertex 21.4 23.2 0.688889
      vertex 0.599999 23.2 0.688889
    endloop
  endfacet
  facet normal 0 -1 0
    outer loop
      vertex 0.599999 20 0
      vertex 21.4 20 2.16667
      vertex 0.599999 20 2.16667
    endloop
  endfacet
  facet normal 0 -1 -0
    outer loop
      vertex 21.4 20 2.16667
      vertex 0.599999 20 0
      vertex 21.4 20 0
    endloop
  endfacet
  facet normal -0 0 1
    outer loop
      vertex 0.599999 26 4.33333
      vertex 21.4 23 4.33333
      vertex 21.4 26 4.33333
    endloop
  endfacet
  facet normal 0 0 1
    outer loop
      vertex 21.4 23 4.33333
      vertex 0.599999 26 4.33333
      vertex 0.599999 23 4.33333
    endloop
  endfacet
  facet normal 0 0 -1
    outer loop
      vertex 0.599999 26.2 4.33333
      vertex 21.4 28.2462 4.33333
      vertex 21.4 26.2 4.33333
    endloop
  endfacet
  facet normal -0 0 -1
    outer loop
      vertex 21.4 28.2462 4.33333
      vertex 0.599999 26.2 4.33333
      vertex 0.599999 28.2462 4.33333
    endloop
  endfacet
  facet normal 0 1 -0
    outer loop
      vertex 21.4 26.2 2.85556
      vertex 0.599999 26.2 4.33333
      vertex 21.4 26.2 4.33333
    endloop
  endfacet
  facet normal 0 1 0
    outer loop
      vertex 0.599999 26.2 4.33333
      vertex 21.4 26.2 2.85556
      vertex 0.599999 26.2 2.85556
    endloop
  endfacet
  facet normal 0 -1 0
    outer loop
      vertex 0.599999 23 2.16667
      vertex 21.4 23 4.33333
      vertex 0.599999 23 4.33333
    endloop
  endfacet
  facet normal 0 -1 -0
    outer loop
      vertex 21.4 23 4.33333
      vertex 0.599999 23 2.16667
      vertex 21.4 23 2.16667
    endloop
  endfacet
  facet normal -0 0 1
    outer loop
      vertex 0.599999 29 6.5
      vertex 21.4 26 6.5
      vertex 21.4 29 6.5
    endloop
  endfacet
  facet normal 0 0 1
    outer loop
      vertex 21.4 26 6.5
      vertex 0.599999 29 6.5
      vertex 0.599999 26 6.5
    endloop
  endfacet
  facet normal 0 0 -1
    outer loop
      vertex 0.599999 29.2 6.5
      vertex 21.4 31.2462 6.5
      vertex 21.4 29.2 6.5
    endloop
  endfacet
  facet normal -0 0 -1
    outer loop
      vertex 21.4 31.2462 6.5
      vertex 0.599999 29.2 6.5
      vertex 0.599999 31.2462 6.5
    endloop
  endfacet
  facet normal 0 1 -0
    outer loop
      vertex 21.4 29.2 5.02222
      vertex 0.599999 29.2 6.5
      vertex 21.4 29.2 6.5
    endloop
  endfacet
  facet normal 0 1 0
    outer loop
      vertex 0.599999 29.2 6.5
      vertex 21.4 29.2 5.02222
      vertex 0.599999 29.2 5.02222
    endloop
  endfacet
  facet normal 0 -1 0
    outer loop
      vertex 0.599999 26 4.33333
      vertex 21.4 26 6.5
      vertex 0.599999 26 6.5
    endloop
  endfacet
  facet normal 0 -1 -0
    outer loop
      vertex 21.4 26 6.5
      vertex 0.599999 26 4.33333
      vertex 21.4 26 4.33333
    endloop
  endfacet
  facet normal -0 0 1
    outer loop
      vertex 0.599999 32 8.66667
      vertex 21.4 29 8.66667
      vertex 21.4 32 8.66667
    endloop
  endfacet
  facet normal 0 0 1
    outer loop
      vertex 21.4 29 8.66667
      vertex 0.599999 32 8.66667
      vertex 0.599999 29 8.66667
    endloop
  endfacet
  facet normal 0 0 -1
    outer loop
      vertex 0.599999 32.2 8.66667
      vertex 21.4 34.2462 8.66667
      vertex 21.4 32.2 8.66667
    endloop
  endfacet
  facet normal -0 0 -1
    outer loop
      vertex 21.4 34.2462 8.66667
      vertex 0.599999 32.2 8.66667
      vertex 0.599999 34.2462 8.66667
    endloop
  endfacet
  facet normal 0 1 -0
    outer loop
      vertex 21.4 32.2 7.18889
      vertex 0.599999 32.2 8.66667
      vertex 21.4 32.2 8.66667
    endloop
  endfacet
  facet normal 0 1 0
    outer loop
      vertex 0.599999 32.2 8.66667
      vertex 21.4 32.2 7.18889
      vertex 0.599999 32.2 7.18889
    endloop
  endfacet
  facet normal 0 -1 0
    outer loop
      vertex 0.599999 29 6.5
      vertex 21.4 29 8.66667
      vertex 0.599999 29 8.66667
    endloop
  endfacet
  facet normal 0 -1 -0
    outer loop
      vertex 21.4 29 8.66667
      vertex 0.599999 29 6.5
      vertex 21.4 29 6.5
    endloop
  endfacet
  facet normal -0 0 1
    outer loop
      vertex 0.599999 35 10.8333
      vertex 21.4 32 10.8333
      vertex 21.4 35 10.8333
    endloop
  endfacet
  facet normal 0 0 1
    outer loop
      vertex 21.4 32 10.8333
      vertex 0.599999 35 10.8333
      vertex 0.599999 32 10.8333
    endloop
  endfacet
  facet normal 0 0 -1
    outer loop
      vertex 0.599999 35.2 10.8333
      vertex 21.4 37.2462 10.8333
      vertex 21.4 35.2 10.8333
    endloop
  endfacet
  facet normal -0 0 -1
    outer loop
      vertex 21.4 37.2462 10.8333
      vertex 0.599999 35.2 10.8333
      vertex 0.599999 37.2462 10.8333
    endloop
  endfacet
  facet normal 0 1 -0
    outer loop
      vertex 21.4 35.2 9.35556
      vertex 0.599999 35.2 10.8333
      vertex 21.4 35.2 10.8333
    endloop
  endfacet
  facet normal 0 1 0
    outer loop
      vertex 0.599999 35.2 10.8333
      vertex 21.4 35.2 9.35556
      vertex 0.599999 35.2 9.35556
    endloop
  endfacet
  facet normal 0 -1 0
    outer loop
      vertex 0.599999 32 8.66667
      vertex 21.4 32 10.8333
      vertex 0.599999 32 10.8333
    endloop
  endfacet
  facet normal 0 -1 -0
    outer loop
      vertex 21.4 32 10.8333
      vertex 0.599999 32 8.66667
      vertex 21.4 32 8.66667
    endloop
  endfacet
  facet normal -0 0 1
    outer loop
      vertex 0.599999 38 13
      vertex 21.4 35 13
      vertex 21.4 38 13
    endloop
  endfacet
  facet normal 0 0 1
    outer loop
      vertex 21.4 35 13
      vertex 0.599999 38 13
      vertex 0.599999 35 13
    endloop
  endfacet
  facet normal 0 1 -0
    outer loop
      vertex 22 38.2 10.8333
      vertex 0 38.2 12.4
      vertex 22 38.2 12.4
    endloop
  endfacet
  facet normal 0 1 0
    outer loop
      vertex 0 38.2 12.4
      vertex 22 38.2 10.8333
      vertex 0 38.2 10.8333
    endloop
  endfacet
  facet normal 0 -1 0
    outer loop
      vertex 0.599999 35 10.8333
      vertex 21.4 35 13
      vertex 0.599999 35 13
    endloop
  endfacet
  facet normal 0 -1 -0
    outer loop
      vertex 21.4 35 13
      vertex 0.599999 35 10.8333
      vertex 21.4 35 10.8333
    endloop
  endfacet
  facet normal 0 -1 0
    outer loop
      vertex 0 0 20.6
      vertex 0.599999 0 0
      vertex 0.599999 0 20.6
    endloop
  endfacet
  facet normal 0 -1 -0
    outer loop
      vertex 0.599999 0 0
      vertex 0 0 -0.599999
      vertex 21.4 0 0
    endloop
  endfacet
  facet normal 0 -1 0
    outer loop
      vertex 0 0 -0.599999
      vertex 0.599999 0 0
      vertex 0 0 20.6
    endloop
  endfacet
  facet normal 0 -1 0
    outer loop
      vertex 21.4 0 0
      vertex 22 0 20.6
      vertex 21.4 0 20.6
    endloop
  endfacet
  facet normal 0 -1 0
    outer loop
      vertex 21.4 0 0
      vertex 22 0 -0.599999
      vertex 22 0 20.6
    endloop
  endfacet
  facet normal 0 -1 0
    outer loop
      vertex 22 0 -0.599999
      vertex 21.4 0 0
      vertex 0 0 -0.599999
    endloop
  endfacet
  facet normal 1 0 0
    outer loop
      vertex 0.599999 61 26
      vertex 0.599999 58 23.8333
      vertex 0.599999 61 23.8333
    endloop
  endfacet
  facet normal 1 0 0
    outer loop
      vertex 0.599999 58 23.8333
      vertex 0.599999 55 21.6667
      vertex 0.599999 58 21.6667
    endloop
  endfacet
  facet normal 1 -0 0
    outer loop
      vertex 0.599999 32 26
      vertex 0.599999 58 23.8333
      vertex 0.599999 61 26
    endloop
  endfacet
  facet normal 1 0 0
    outer loop
      vertex 0.599999 55 21.6667
      vertex 0.599999 52 19.5
      vertex 0.599999 55 19.5
    endloop
  endfacet
  facet normal 1 0 0
    outer loop
      vertex 0.599999 58 23.8333
      vertex 0.599999 32 26
      vertex 0.599999 55 21.6667
    endloop
  endfacet
  facet normal 1 0 0
    outer loop
      vertex 0.599999 52 19.5
      vertex 0.599999 49 17.3333
      vertex 0.599999 52 17.3333
    endloop
  endfacet
  facet normal 1 0 0
    outer loop
      vertex 0.599999 49 17.3333
      vertex 0.599999 46 15.1667
      vertex 0.599999 49 15.1667
    endloop
  endfacet
  facet normal 1 0 0
    outer loop
      vertex 0.599999 32 26
      vertex 0.599999 49 17.3333
      vertex 0.599999 52 19.5
    endloop
  endfacet
  facet normal 1 0 0
    outer loop
      vertex 0.599999 46 15.1667
      vertex 0.599999 38 13
      vertex 0.599999 46 13
    endloop
  endfacet
  facet normal 1 -0 0
    outer loop
      vertex 0.599999 32 25
      vertex 0.599999 49 17.3333
      vertex 0.599999 32 26
    endloop
  endfacet
  facet normal 1 0 0
    outer loop
      vertex 0.599999 55 21.6667
      vertex 0.599999 32 26
      vertex 0.599999 52 19.5
    endloop
  endfacet
  facet normal 1 0 0
    outer loop
      vertex 0.599999 46 15.1667
      vertex 0.599999 32 25
      vertex 0.599999 38 13
    endloop
  endfacet
  facet normal 1 0 0
    outer loop
      vertex 0.599999 49 17.3333
      vertex 0.599999 32 25
      vertex 0.599999 46 15.1667
    endloop
  endfacet
  facet normal 1 0 0
    outer loop
      vertex 0.599999 38 13
      vertex 0.599999 32 25
      vertex 0.599999 35 13
    endloop
  endfacet
  facet normal 1 -0 0
    outer loop
      vertex 0.599999 25 20.6
      vertex 0.599999 35 13
      vertex 0.599999 32 25
    endloop
  endfacet
  facet normal 1 0 0
    outer loop
      vertex 0.599999 35 13
      vertex 0.599999 32 10.8333
      vertex 0.599999 35 10.8333
    endloop
  endfacet
  facet normal 1 0 0
    outer loop
      vertex 0.599999 35 13
      vertex 0.599999 25 20.6
      vertex 0.599999 32 10.8333
    endloop
  endfacet
  facet normal 1 0 -0
    outer loop
      vertex 0.599999 29 8.66667
      vertex 0.599999 32 10.8333
      vertex 0.599999 25 20.6
    endloop
  endfacet
  facet normal 1 0 0
    outer loop
      vertex 0.599999 29 8.66667
      vertex 0.599999 26 6.5
      vertex 0.599999 29 6.5
    endloop
  endfacet
  facet normal 1 0 0
    outer loop
      vertex 0.599999 32 10.8333
      vertex 0.599999 29 8.66667
      vertex 0.599999 32 8.66667
    endloop
  endfacet
  facet normal 1 0 0
    outer loop
      vertex 0.599999 25 20.6
      vertex 0.599999 32 25
      vertex 0.599999 25 25
    endloop
  endfacet
  facet normal 1 0 0
    outer loop
      vertex 0.599999 29 8.66667
      vertex 0.599999 25 20.6
      vertex 0.599999 26 6.5
    endloop
  endfacet
  facet normal 1 0 0
    outer loop
      vertex 0.599999 23 4.33333
      vertex 0.599999 26 6.5
      vertex 0.599999 25 20.6
    endloop
  endfacet
  facet normal 1 0 0
    outer loop
      vertex 0.599999 26 6.5
      vertex 0.599999 23 4.33333
      vertex 0.599999 26 4.33333
    endloop
  endfacet
  facet normal 1 0 0
    outer loop
      vertex 0.599999 23 4.33333
      vertex 0.599999 20 2.16667
      vertex 0.599999 23 2.16667
    endloop
  endfacet
  facet normal 1 0 0
    outer loop
      vertex 0.599999 25 20.6
      vertex 0.599999 20 2.16667
      vertex 0.599999 23 4.33333
    endloop
  endfacet
  facet normal 1 -0 0
    outer loop
      vertex 0.599999 0 20.6
      vertex 0.599999 20 2.16667
      vertex 0.599999 25 20.6
    endloop
  endfacet
  facet normal 1 0 0
    outer loop
      vertex 0.599999 0 0
      vertex 0.599999 20 2.16667
      vertex 0.599999 0 20.6
    endloop
  endfacet
  facet normal 1 0 0
    outer loop
      vertex 0.599999 20 2.16667
      vertex 0.599999 0 0
      vertex 0.599999 20 0
    endloop
  endfacet
  facet normal 0 0 0
    outer loop
      vertex 0.599999 32 26
      vertex 0.599999 61 26
      vertex 0.599999 64 26
    endloop
  endfacet
  facet normal 1 0 0
    outer loop
      vertex 0.599999 23.6 0
      vertex 0.599999 29.2 4.33333
      vertex 0.599999 26.2 2.16667
    endloop
  endfacet
  facet normal 1 -0 0
    outer loop
      vertex 0.599999 29.2 4.33333
      vertex 0.599999 23.6 0
      vertex 0.599999 33.2 7.22222
    endloop
  endfacet
  facet normal 1 0 -0
    outer loop
      vertex 0.599999 23.6 0
      vertex 0.599999 26.2 2.16667
      vertex 0.599999 23.2 0
    endloop
  endfacet
  facet normal 1 -0 0
    outer loop
      vertex 0.599999 23.2 2.16667
      vertex 0.599999 23.2 0.688889
      vertex 0.599999 25.2462 2.16667
    endloop
  endfacet
  facet normal 1 -0 0
    outer loop
      vertex 0.599999 29.2 6.5
      vertex 0.599999 29.2 5.02222
      vertex 0.599999 31.2462 6.5
    endloop
  endfacet
  facet normal 1 -0 0
    outer loop
      vertex 0.599999 26.2 4.33333
      vertex 0.599999 26.2 2.85556
      vertex 0.599999 28.2462 4.33333
    endloop
  endfacet
  facet normal 1 -0 0
    outer loop
      vertex 0.599999 32.2 8.66667
      vertex 0.599999 32.2 7.18889
      vertex 0.599999 34.2462 8.66667
    endloop
  endfacet
  facet normal 1 -0 0
    outer loop
      vertex 0.599999 35.2 10.8333
      vertex 0.599999 35.2 9.35556
      vertex 0.599999 37.2462 10.8333
    endloop
  endfacet
  facet normal 0 0.601183 -0.799111
    outer loop
      vertex 0 23.6 0
      vertex 0.599999 33.2 7.22222
      vertex 0.599999 23.6 0
    endloop
  endfacet
  facet normal 0 0.601183 -0.799111
    outer loop
      vertex 0.599999 33.2 7.22222
      vertex 0 23.6 0
      vertex 0 33.2 7.22222
    endloop
  endfacet
  facet normal 0 0.601183 -0.799111
    outer loop
      vertex 21.4 23.6 0
      vertex 22 33.2 7.22222
      vertex 22 23.6 0
    endloop
  endfacet
  facet normal 0 0.601183 -0.799111
    outer loop
      vertex 22 33.2 7.22222
      vertex 21.4 23.6 0
      vertex 21.4 33.2 7.22222
    endloop
  endfacet
  facet normal -1 0 0
    outer loop
      vertex 21.4 20 0
      vertex 21.4 0 0
      vertex 21.4 20 2.16667
    endloop
  endfacet
  facet normal -1 0 0
    outer loop
      vertex 21.4 23 2.16667
      vertex 21.4 20 2.16667
      vertex 21.4 23 4.33333
    endloop
  endfacet
  facet normal -1 0 0
    outer loop
      vertex 21.4 23 4.33333
      vertex 21.4 26 6.5
      vertex 21.4 26 4.33333
    endloop
  endfacet
  facet normal -1 -0 0
    outer loop
      vertex 21.4 26 6.5
      vertex 21.4 23 4.33333
      vertex 21.4 25 20.6
    endloop
  endfacet
  facet normal -1 0 0
    outer loop
      vertex 21.4 20 2.16667
      vertex 21.4 25 20.6
      vertex 21.4 23 4.33333
    endloop
  endfacet
  facet normal -1 0 0
    outer loop
      vertex 21.4 0 20.6
      vertex 21.4 20 2.16667
      vertex 21.4 0 0
    endloop
  endfacet
  facet normal -1 0 0
    outer loop
      vertex 21.4 20 2.16667
      vertex 21.4 0 20.6
      vertex 21.4 25 20.6
    endloop
  endfacet
  facet normal -1 0 0
    outer loop
      vertex 21.4 29 6.5
      vertex 21.4 26 6.5
      vertex 21.4 29 8.66667
    endloop
  endfacet
  facet normal -1 0 0
    outer loop
      vertex 21.4 35 10.8333
      vertex 21.4 32 10.8333
      vertex 21.4 35 13
    endloop
  endfacet
  facet normal -1 0 0
    outer loop
      vertex 21.4 46 13
      vertex 21.4 38 13
      vertex 21.4 46 15.1667
    endloop
  endfacet
  facet normal -1 0 0
    outer loop
      vertex 21.4 49 15.1667
      vertex 21.4 46 15.1667
      vertex 21.4 49 17.3333
    endloop
  endfacet
  facet normal -1 0 0
    outer loop
      vertex 21.4 52 17.3333
      vertex 21.4 49 17.3333
      vertex 21.4 52 19.5
    endloop
  endfacet
  facet normal -1 0 0
    outer loop
      vertex 21.4 55 19.5
      vertex 21.4 52 19.5
      vertex 21.4 55 21.6667
    endloop
  endfacet
  facet normal -1 0 0
    outer loop
      vertex 21.4 58 21.6667
      vertex 21.4 55 21.6667
      vertex 21.4 58 23.8333
    endloop
  endfacet
  facet normal -1 0 0
    outer loop
      vertex 21.4 58 23.8333
      vertex 21.4 61 26
      vertex 21.4 61 23.8333
    endloop
  endfacet
  facet normal -1 0 0
    outer loop
      vertex 21.4 32 26
      vertex 21.4 58 23.8333
      vertex 21.4 55 21.6667
    endloop
  endfacet
  facet normal -1 0 0
    outer loop
      vertex 21.4 32 26
      vertex 21.4 55 21.6667
      vertex 21.4 52 19.5
    endloop
  endfacet
  facet normal -1 0 0
    outer loop
      vertex 21.4 32 25
      vertex 21.4 49 17.3333
      vertex 21.4 46 15.1667
    endloop
  endfacet
  facet normal -1 0 0
    outer loop
      vertex 21.4 32 25
      vertex 21.4 46 15.1667
      vertex 21.4 38 13
    endloop
  endfacet
  facet normal -1 0 0
    outer loop
      vertex 21.4 49 17.3333
      vertex 21.4 32 25
      vertex 21.4 32 26
    endloop
  endfacet
  facet normal -1 0 0
    outer loop
      vertex 21.4 32 25
      vertex 21.4 38 13
      vertex 21.4 35 13
    endloop
  endfacet
  facet normal -1 0 0
    outer loop
      vertex 21.4 25 20.6
      vertex 21.4 35 13
      vertex 21.4 32 10.8333
    endloop
  endfacet
  facet normal -1 0 0
    outer loop
      vertex 21.4 49 17.3333
      vertex 21.4 32 26
      vertex 21.4 52 19.5
    endloop
  endfacet
  facet normal -1 0 0
    outer loop
      vertex 21.4 58 23.8333
      vertex 21.4 32 26
      vertex 21.4 61 26
    endloop
  endfacet
  facet normal -1 0 0
    outer loop
      vertex 21.4 29 8.66667
      vertex 21.4 32 10.8333
      vertex 21.4 32 8.66667
    endloop
  endfacet
  facet normal -1 -0 0
    outer loop
      vertex 21.4 32 10.8333
      vertex 21.4 29 8.66667
      vertex 21.4 25 20.6
    endloop
  endfacet
  facet normal -1 0 0
    outer loop
      vertex 21.4 25 20.6
      vertex 21.4 29 8.66667
      vertex 21.4 26 6.5
    endloop
  endfacet
  facet normal -1 0 0
    outer loop
      vertex 21.4 35 13
      vertex 21.4 25 20.6
      vertex 21.4 32 25
    endloop
  endfacet
  facet normal -1 -0 0
    outer loop
      vertex 21.4 32 25
      vertex 21.4 25 20.6
      vertex 21.4 25 25
    endloop
  endfacet
  facet normal 0 0 0
    outer loop
      vertex 21.4 32 26
      vertex 21.4 64 26
      vertex 21.4 61 26
    endloop
  endfacet
  facet normal -1 0 0
    outer loop
      vertex 21.4 23.6 0
      vertex 21.4 29.2 4.33333
      vertex 21.4 33.2 7.22222
    endloop
  endfacet
  facet normal -1 0 0
    outer loop
      vertex 21.4 29.2 4.33333
      vertex 21.4 23.6 0
      vertex 21.4 26.2 2.16667
    endloop
  endfacet
  facet normal -1 0 0
    outer loop
      vertex 21.4 26.2 2.16667
      vertex 21.4 23.6 0
      vertex 21.4 23.2 0
    endloop
  endfacet
  facet normal -1 -0 0
    outer loop
      vertex 21.4 25.2462 2.16667
      vertex 21.4 23.2 0.688889
      vertex 21.4 23.2 2.16667
    endloop
  endfacet
  facet normal -1 -0 0
    outer loop
      vertex 21.4 31.2462 6.5
      vertex 21.4 29.2 5.02222
      vertex 21.4 29.2 6.5
    endloop
  endfacet
  facet normal -1 -0 0
    outer loop
      vertex 21.4 28.2462 4.33333
      vertex 21.4 26.2 2.85556
      vertex 21.4 26.2 4.33333
    endloop
  endfacet
  facet normal -1 -0 0
    outer loop
      vertex 21.4 34.2462 8.66667
      vertex 21.4 32.2 7.18889
      vertex 21.4 32.2 8.66667
    endloop
  endfacet
  facet normal -1 -0 0
    outer loop
      vertex 21.4 37.2462 10.8333
      vertex 21.4 35.2 9.35556
      vertex 21.4 35.2 10.8333
    endloop
  endfacet
  facet normal 0 0.585484 -0.810684
    outer loop
      vertex 0 35.2 8.66667
      vertex 22 38.2 10.8333
      vertex 22 35.2 8.66667
    endloop
  endfacet
  facet normal 0 0.585484 -0.810684
    outer loop
      vertex 22 38.2 10.8333
      vertex 0 35.2 8.66667
      vertex 0 38.2 10.8333
    endloop
  endfacet
  facet normal 0 0.585491 -0.810679
    outer loop
      vertex 21.4 29.2 4.33333
      vertex 0.599999 29.2 4.33333
      vertex 21.4 33.2 7.22222
    endloop
  endfacet
  facet normal 0 0.585492 -0.810678
    outer loop
      vertex 21.4 33.2 7.22222
      vertex 22 35.2 8.66667
      vertex 22 33.2 7.22222
    endloop
  endfacet
  facet normal 0 0.585491 -0.810679
    outer loop
      vertex 0.599999 33.2 7.22222
      vertex 21.4 33.2 7.22222
      vertex 0.599999 29.2 4.33333
    endloop
  endfacet
  facet normal 0 0.585492 -0.810678
    outer loop
      vertex 21.4 33.2 7.22222
      vertex 0.599999 33.2 7.22222
      vertex 22 35.2 8.66667
    endloop
  endfacet
  facet normal 0 0.585492 -0.810678
    outer loop
      vertex 0 35.2 8.66667
      vertex 0.599999 33.2 7.22222
      vertex 0 33.2 7.22222
    endloop
  endfacet
  facet normal 0 0.585492 -0.810678
    outer loop
      vertex 0.599999 33.2 7.22222
      vertex 0 35.2 8.66667
      vertex 22 35.2 8.66667
    endloop
  endfacet
  facet normal 0 0.585491 -0.810679
    outer loop
      vertex 0.599999 23.2 0
      vertex 21.4 26.2 2.16667
      vertex 21.4 23.2 0
    endloop
  endfacet
  facet normal 0 0.585491 -0.810679
    outer loop
      vertex 21.4 26.2 2.16667
      vertex 0.599999 23.2 0
      vertex 0.599999 26.2 2.16667
    endloop
  endfacet
  facet normal 0 0.585489 -0.81068
    outer loop
      vertex 0.599999 26.2 2.16667
      vertex 21.4 29.2 4.33333
      vertex 21.4 26.2 2.16667
    endloop
  endfacet
  facet normal 0 0.585489 -0.81068
    outer loop
      vertex 21.4 29.2 4.33333
      vertex 0.599999 26.2 2.16667
      vertex 0.599999 29.2 4.33333
    endloop
  endfacet
  facet normal 0 -0.585483 0.810685
    outer loop
      vertex 0.599999 25.2462 2.16667
      vertex 21.4 23.2 0.688889
      vertex 21.4 25.2462 2.16667
    endloop
  endfacet
  facet normal 0 -0.585483 0.810685
    outer loop
      vertex 21.4 23.2 0.688889
      vertex 0.599999 25.2462 2.16667
      vertex 0.599999 23.2 0.688889
    endloop
  endfacet
  facet normal 0 -0.585482 0.810685
    outer loop
      vertex 0.599999 31.2462 6.5
      vertex 21.4 29.2 5.02222
      vertex 21.4 31.2462 6.5
    endloop
  endfacet
  facet normal 0 -0.585482 0.810685
    outer loop
      vertex 21.4 29.2 5.02222
      vertex 0.599999 31.2462 6.5
      vertex 0.599999 29.2 5.02222
    endloop
  endfacet
  facet normal 0 -0.58548 0.810687
    outer loop
      vertex 0.599999 28.2462 4.33333
      vertex 21.4 26.2 2.85556
      vertex 21.4 28.2462 4.33333
    endloop
  endfacet
  facet normal 0 -0.58548 0.810687
    outer loop
      vertex 21.4 26.2 2.85556
      vertex 0.599999 28.2462 4.33333
      vertex 0.599999 26.2 2.85556
    endloop
  endfacet
  facet normal 0 -0.585482 0.810685
    outer loop
      vertex 0.599999 34.2462 8.66667
      vertex 21.4 32.2 7.18889
      vertex 21.4 34.2462 8.66667
    endloop
  endfacet
  facet normal 0 -0.585482 0.810685
    outer loop
      vertex 21.4 32.2 7.18889
      vertex 0.599999 34.2462 8.66667
      vertex 0.599999 32.2 7.18889
    endloop
  endfacet
  facet normal 0 -0.585472 0.810693
    outer loop
      vertex 0.599999 37.2462 10.8333
      vertex 21.4 35.2 9.35556
      vertex 21.4 37.2462 10.8333
    endloop
  endfacet
  facet normal 0 -0.585472 0.810693
    outer loop
      vertex 21.4 35.2 9.35556
      vertex 0.599999 37.2462 10.8333
      vertex 0.599999 35.2 9.35556
    endloop
  endfacet
  facet normal 0 0 -1
    outer loop
      vertex 0 0 -0.599999
      vertex 22 20.6 -0.599999
      vertex 22 0 -0.599999
    endloop
  endfacet
  facet normal -0 0 -1
    outer loop
      vertex 22 20.6 -0.599999
      vertex 0 0 -0.599999
      vertex 0 20.6 -0.599999
    endloop
  endfacet
  facet normal 0 1 -0
    outer loop
      vertex 22 20.6 -0.599999
      vertex 0 20.6 0
      vertex 22 20.6 0
    endloop
  endfacet
  facet normal 0 1 0
    outer loop
      vertex 0 20.6 0
      vertex 22 20.6 -0.599999
      vertex 0 20.6 -0.599999
    endloop
  endfacet
  facet normal -0 0 1
    outer loop
      vertex 0.599999 49 15.1667
      vertex 21.4 46 15.1667
      vertex 21.4 49 15.1667
    endloop
  endfacet
  facet normal 0 0 1
    outer loop
      vertex 21.4 46 15.1667
      vertex 0.599999 49 15.1667
      vertex 0.599999 46 15.1667
    endloop
  endfacet
  facet normal 0 0 -1
    outer loop
      vertex 0.599999 49.2 15.1667
      vertex 21.4 51.2462 15.1667
      vertex 21.4 49.2 15.1667
    endloop
  endfacet
  facet normal -0 0 -1
    outer loop
      vertex 21.4 51.2462 15.1667
      vertex 0.599999 49.2 15.1667
      vertex 0.599999 51.2462 15.1667
    endloop
  endfacet
  facet normal -0 0 1
    outer loop
      vertex 0.599999 46 13
      vertex 21.4 38 13
      vertex 21.4 46 13
    endloop
  endfacet
  facet normal 0 0 1
    outer loop
      vertex 21.4 38 13
      vertex 0.599999 46 13
      vertex 0.599999 38 13
    endloop
  endfacet
  facet normal 0 0 -1
    outer loop
      vertex 22 46.6 13
      vertex 21.4 49.2 13
      vertex 22 49.6 13
    endloop
  endfacet
  facet normal 0 0 -1
    outer loop
      vertex 22 46.6 13
      vertex 0.599999 49.2 13
      vertex 21.4 49.2 13
    endloop
  endfacet
  facet normal 0 0 -1
    outer loop
      vertex 0 46.6 13
      vertex 0.599999 49.2 13
      vertex 22 46.6 13
    endloop
  endfacet
  facet normal 0 0 -1
    outer loop
      vertex 0 49.6 13
      vertex 0.599999 49.2 13
      vertex 0 46.6 13
    endloop
  endfacet
  facet normal 0 0 -1
    outer loop
      vertex 0.599999 49.2 13
      vertex 0 49.6 13
      vertex 0.599999 49.6 13
    endloop
  endfacet
  facet normal -0 0 -1
    outer loop
      vertex 22 49.6 13
      vertex 21.4 49.2 13
      vertex 21.4 49.6 13
    endloop
  endfacet
  facet normal 0 1 -0
    outer loop
      vertex 21.4 49.2 13.6889
      vertex 0.599999 49.2 15.1667
      vertex 21.4 49.2 15.1667
    endloop
  endfacet
  facet normal 0 1 0
    outer loop
      vertex 0.599999 49.2 15.1667
      vertex 21.4 49.2 13.6889
      vertex 0.599999 49.2 13.6889
    endloop
  endfacet
  facet normal 0 -1 0
    outer loop
      vertex 0.599999 46 13
      vertex 21.4 46 15.1667
      vertex 0.599999 46 15.1667
    endloop
  endfacet
  facet normal 0 -1 -0
    outer loop
      vertex 21.4 46 15.1667
      vertex 0.599999 46 13
      vertex 21.4 46 13
    endloop
  endfacet
  facet normal -0 0 1
    outer loop
      vertex 0.599999 52 17.3333
      vertex 21.4 49 17.3333
      vertex 21.4 52 17.3333
    endloop
  endfacet
  facet normal 0 0 1
    outer loop
      vertex 21.4 49 17.3333
      vertex 0.599999 52 17.3333
      vertex 0.599999 49 17.3333
    endloop
  endfacet
  facet normal 0 0 -1
    outer loop
      vertex 0.599999 52.2 17.3333
      vertex 21.4 54.2462 17.3333
      vertex 21.4 52.2 17.3333
    endloop
  endfacet
  facet normal -0 0 -1
    outer loop
      vertex 21.4 54.2462 17.3333
      vertex 0.599999 52.2 17.3333
      vertex 0.599999 54.2462 17.3333
    endloop
  endfacet
  facet normal 0 1 -0
    outer loop
      vertex 21.4 52.2 15.8556
      vertex 0.599999 52.2 17.3333
      vertex 21.4 52.2 17.3333
    endloop
  endfacet
  facet normal 0 1 0
    outer loop
      vertex 0.599999 52.2 17.3333
      vertex 21.4 52.2 15.8556
      vertex 0.599999 52.2 15.8556
    endloop
  endfacet
  facet normal 0 -1 0
    outer loop
      vertex 0.599999 49 15.1667
      vertex 21.4 49 17.3333
      vertex 0.599999 49 17.3333
    endloop
  endfacet
  facet normal 0 -1 -0
    outer loop
      vertex 21.4 49 17.3333
      vertex 0.599999 49 15.1667
      vertex 21.4 49 15.1667
    endloop
  endfacet
  facet normal -0 0 1
    outer loop
      vertex 0.599999 55 19.5
      vertex 21.4 52 19.5
      vertex 21.4 55 19.5
    endloop
  endfacet
  facet normal 0 0 1
    outer loop
      vertex 21.4 52 19.5
      vertex 0.599999 55 19.5
      vertex 0.599999 52 19.5
    endloop
  endfacet
  facet normal 0 0 -1
    outer loop
      vertex 0.599999 55.2 19.5
      vertex 21.4 57.2462 19.5
      vertex 21.4 55.2 19.5
    endloop
  endfacet
  facet normal -0 0 -1
    outer loop
      vertex 21.4 57.2462 19.5
      vertex 0.599999 55.2 19.5
      vertex 0.599999 57.2462 19.5
    endloop
  endfacet
  facet normal 0 1 -0
    outer loop
      vertex 21.4 55.2 18.0222
      vertex 0.599999 55.2 19.5
      vertex 21.4 55.2 19.5
    endloop
  endfacet
  facet normal 0 1 0
    outer loop
      vertex 0.599999 55.2 19.5
      vertex 21.4 55.2 18.0222
      vertex 0.599999 55.2 18.0222
    endloop
  endfacet
  facet normal 0 -1 0
    outer loop
      vertex 0.599999 52 17.3333
      vertex 21.4 52 19.5
      vertex 0.599999 52 19.5
    endloop
  endfacet
  facet normal 0 -1 -0
    outer loop
      vertex 21.4 52 19.5
      vertex 0.599999 52 17.3333
      vertex 21.4 52 17.3333
    endloop
  endfacet
  facet normal -0 0 1
    outer loop
      vertex 0.599999 58 21.6667
      vertex 21.4 55 21.6667
      vertex 21.4 58 21.6667
    endloop
  endfacet
  facet normal 0 0 1
    outer loop
      vertex 21.4 55 21.6667
      vertex 0.599999 58 21.6667
      vertex 0.599999 55 21.6667
    endloop
  endfacet
  facet normal 0 0 -1
    outer loop
      vertex 0.599999 58.2 21.6667
      vertex 21.4 60.2462 21.6667
      vertex 21.4 58.2 21.6667
    endloop
  endfacet
  facet normal -0 0 -1
    outer loop
      vertex 21.4 60.2462 21.6667
      vertex 0.599999 58.2 21.6667
      vertex 0.599999 60.2462 21.6667
    endloop
  endfacet
  facet normal 0 1 -0
    outer loop
      vertex 21.4 58.2 20.1889
      vertex 0.599999 58.2 21.6667
      vertex 21.4 58.2 21.6667
    endloop
  endfacet
  facet normal 0 1 0
    outer loop
      vertex 0.599999 58.2 21.6667
      vertex 21.4 58.2 20.1889
      vertex 0.599999 58.2 20.1889
    endloop
  endfacet
  facet normal 0 -1 0
    outer loop
      vertex 0.599999 55 19.5
      vertex 21.4 55 21.6667
      vertex 0.599999 55 21.6667
    endloop
  endfacet
  facet normal 0 -1 -0
    outer loop
      vertex 21.4 55 21.6667
      vertex 0.599999 55 19.5
      vertex 21.4 55 19.5
    endloop
  endfacet
  facet normal -0 0 1
    outer loop
      vertex 0.599999 61 23.8333
      vertex 21.4 58 23.8333
      vertex 21.4 61 23.8333
    endloop
  endfacet
  facet normal 0 0 1
    outer loop
      vertex 21.4 58 23.8333
      vertex 0.599999 61 23.8333
      vertex 0.599999 58 23.8333
    endloop
  endfacet
  facet normal 0 0 -1
    outer loop
      vertex 0.599999 61.2 23.8333
      vertex 21.4 63.2462 23.8333
      vertex 21.4 61.2 23.8333
    endloop
  endfacet
  facet normal -0 0 -1
    outer loop
      vertex 21.4 63.2462 23.8333
      vertex 0.599999 61.2 23.8333
      vertex 0.599999 63.2462 23.8333
    endloop
  endfacet
  facet normal 0 1 -0
    outer loop
      vertex 21.4 61.2 22.3556
      vertex 0.599999 61.2 23.8333
      vertex 21.4 61.2 23.8333
    endloop
  endfacet
  facet normal 0 1 0
    outer loop
      vertex 0.599999 61.2 23.8333
      vertex 21.4 61.2 22.3556
      vertex 0.599999 61.2 22.3556
    endloop
  endfacet
  facet normal 0 -1 0
    outer loop
      vertex 0.599999 58 21.6667
      vertex 21.4 58 23.8333
      vertex 0.599999 58 23.8333
    endloop
  endfacet
  facet normal 0 -1 -0
    outer loop
      vertex 21.4 58 23.8333
      vertex 0.599999 58 21.6667
      vertex 21.4 58 21.6667
    endloop
  endfacet
  facet normal 0 0 1
    outer loop
      vertex 22 64.2 26
      vertex 21.4 64 26
      vertex 22 64 26
    endloop
  endfacet
  facet normal 0 0 1
    outer loop
      vertex 21.4 64 26
      vertex 0.599999 64 26
      vertex 21.4 61 26
    endloop
  endfacet
  facet normal 0 0 1
    outer loop
      vertex 22 64.2 26
      vertex 0.599999 64 26
      vertex 21.4 64 26
    endloop
  endfacet
  facet normal -0 0 1
    outer loop
      vertex 0 64.2 26
      vertex 0.599999 64 26
      vertex 22 64.2 26
    endloop
  endfacet
  facet normal 0 0 1
    outer loop
      vertex 0.599999 64 26
      vertex 0 64.2 26
      vertex 0 64 26
    endloop
  endfacet
  facet normal 0 0 1
    outer loop
      vertex 21.4 61 26
      vertex 0.599999 64 26
      vertex 0.599999 61 26
    endloop
  endfacet
  facet normal 0 1 -0
    outer loop
      vertex 22 64.2 23.8333
      vertex 0 64.2 26
      vertex 22 64.2 26
    endloop
  endfacet
  facet normal 0 1 0
    outer loop
      vertex 0 64.2 26
      vertex 22 64.2 23.8333
      vertex 0 64.2 23.8333
    endloop
  endfacet
  facet normal 0 -1 0
    outer loop
      vertex 0.599999 61 23.8333
      vertex 21.4 61 26
      vertex 0.599999 61 26
    endloop
  endfacet
  facet normal 0 -1 -0
    outer loop
      vertex 21.4 61 26
      vertex 0.599999 61 23.8333
      vertex 21.4 61 23.8333
    endloop
  endfacet
  facet normal -0 0 1
    outer loop
      vertex 0 64 26
      vertex 0.599999 32 26
      vertex 0.599999 64 26
    endloop
  endfacet
  facet normal 0 0 1
    outer loop
      vertex 0.599999 32 26
      vertex 0 64 26
      vertex 0 32 26
    endloop
  endfacet
  facet normal 1 -0 0
    outer loop
      vertex 0.599999 55.2 17.3333
      vertex 0.599999 49.6 13
      vertex 0.599999 59.2 20.2222
    endloop
  endfacet
  facet normal 1 -0 0
    outer loop
      vertex 0.599999 52.2 15.1667
      vertex 0.599999 49.6 13
      vertex 0.599999 55.2 17.3333
    endloop
  endfacet
  facet normal 1 0 -0
    outer loop
      vertex 0.599999 49.6 13
      vertex 0.599999 52.2 15.1667
      vertex 0.599999 49.2 13
    endloop
  endfacet
  facet normal 1 -0 0
    outer loop
      vertex 0.599999 49.2 15.1667
      vertex 0.599999 49.2 13.6889
      vertex 0.599999 51.2462 15.1667
    endloop
  endfacet
  facet normal 1 -0 0
    outer loop
      vertex 0.599999 52.2 17.3333
      vertex 0.599999 52.2 15.8556
      vertex 0.599999 54.2462 17.3333
    endloop
  endfacet
  facet normal 1 -0 0
    outer loop
      vertex 0.599999 55.2 19.5
      vertex 0.599999 55.2 18.0222
      vertex 0.599999 57.2462 19.5
    endloop
  endfacet
  facet normal 1 -0 0
    outer loop
      vertex 0.599999 58.2 21.6667
      vertex 0.599999 58.2 20.1889
      vertex 0.599999 60.2462 21.6667
    endloop
  endfacet
  facet normal 1 -0 0
    outer loop
      vertex 0.599999 61.2 23.8333
      vertex 0.599999 61.2 22.3556
      vertex 0.599999 63.2462 23.8333
    endloop
  endfacet
  facet normal 0 0.601182 -0.799112
    outer loop
      vertex 0 49.6 13
      vertex 0.599999 59.2 20.2222
      vertex 0.599999 49.6 13
    endloop
  endfacet
  facet normal 0 0.601182 -0.799112
    outer loop
      vertex 0.599999 59.2 20.2222
      vertex 0 49.6 13
      vertex 0 59.2 20.2222
    endloop
  endfacet
  facet normal -0 0 1
    outer loop
      vertex 21.4 64 26
      vertex 22 32 26
      vertex 22 64 26
    endloop
  endfacet
  facet normal 0 0 1
    outer loop
      vertex 22 32 26
      vertex 21.4 64 26
      vertex 21.4 32 26
    endloop
  endfacet
  facet normal 0 0.601182 -0.799112
    outer loop
      vertex 21.4 49.6 13
      vertex 22 59.2 20.2222
      vertex 22 49.6 13
    endloop
  endfacet
  facet normal 0 0.601182 -0.799112
    outer loop
      vertex 22 59.2 20.2222
      vertex 21.4 49.6 13
      vertex 21.4 59.2 20.2222
    endloop
  endfacet
  facet normal -1 0 0
    outer loop
      vertex 21.4 49.6 13
      vertex 21.4 55.2 17.3333
      vertex 21.4 59.2 20.2222
    endloop
  endfacet
  facet normal -1 0 0
    outer loop
      vertex 21.4 49.6 13
      vertex 21.4 52.2 15.1667
      vertex 21.4 55.2 17.3333
    endloop
  endfacet
  facet normal -1 0 0
    outer loop
      vertex 21.4 52.2 15.1667
      vertex 21.4 49.6 13
      vertex 21.4 49.2 13
    endloop
  endfacet
  facet normal -1 -0 0
    outer loop
      vertex 21.4 51.2462 15.1667
      vertex 21.4 49.2 13.6889
      vertex 21.4 49.2 15.1667
    endloop
  endfacet
  facet normal -1 -0 0
    outer loop
      vertex 21.4 54.2462 17.3333
      vertex 21.4 52.2 15.8556
      vertex 21.4 52.2 17.3333
    endloop
  endfacet
  facet normal -1 -0 0
    outer loop
      vertex 21.4 57.2462 19.5
      vertex 21.4 55.2 18.0222
      vertex 21.4 55.2 19.5
    endloop
  endfacet
  facet normal -1 -0 0
    outer loop
      vertex 21.4 60.2462 21.6667
      vertex 21.4 58.2 20.1889
      vertex 21.4 58.2 21.6667
    endloop
  endfacet
  facet normal -1 -0 0
    outer loop
      vertex 21.4 63.2462 23.8333
      vertex 21.4 61.2 22.3556
      vertex 21.4 61.2 23.8333
    endloop
  endfacet
  facet normal 0 0.585479 -0.810688
    outer loop
      vertex 0 61.2 21.6667
      vertex 22 64.2 23.8333
      vertex 22 61.2 21.6667
    endloop
  endfacet
  facet normal 0 0.585479 -0.810688
    outer loop
      vertex 22 64.2 23.8333
      vertex 0 61.2 21.6667
      vertex 0 64.2 23.8333
    endloop
  endfacet
  facet normal 0 0.585492 -0.810678
    outer loop
      vertex 21.4 55.2 17.3333
      vertex 0.599999 55.2 17.3333
      vertex 21.4 59.2 20.2222
    endloop
  endfacet
  facet normal 0 0.585505 -0.810669
    outer loop
      vertex 21.4 59.2 20.2222
      vertex 22 61.2 21.6667
      vertex 22 59.2 20.2222
    endloop
  endfacet
  facet normal 0 0.585492 -0.810678
    outer loop
      vertex 0.599999 59.2 20.2222
      vertex 21.4 59.2 20.2222
      vertex 0.599999 55.2 17.3333
    endloop
  endfacet
  facet normal 0 0.585505 -0.810669
    outer loop
      vertex 21.4 59.2 20.2222
      vertex 0.599999 59.2 20.2222
      vertex 22 61.2 21.6667
    endloop
  endfacet
  facet normal 0 0.585505 -0.810669
    outer loop
      vertex 0 61.2 21.6667
      vertex 0.599999 59.2 20.2222
      vertex 0 59.2 20.2222
    endloop
  endfacet
  facet normal 0 0.585505 -0.810669
    outer loop
      vertex 0.599999 59.2 20.2222
      vertex 0 61.2 21.6667
      vertex 22 61.2 21.6667
    endloop
  endfacet
  facet normal 0 0.585496 -0.810675
    outer loop
      vertex 0.599999 49.2 13
      vertex 21.4 52.2 15.1667
      vertex 21.4 49.2 13
    endloop
  endfacet
  facet normal 0 0.585496 -0.810675
    outer loop
      vertex 21.4 52.2 15.1667
      vertex 0.599999 49.2 13
      vertex 0.599999 52.2 15.1667
    endloop
  endfacet
  facet normal 0 0.585479 -0.810688
    outer loop
      vertex 0.599999 52.2 15.1667
      vertex 21.4 55.2 17.3333
      vertex 21.4 52.2 15.1667
    endloop
  endfacet
  facet normal 0 0.585479 -0.810688
    outer loop
      vertex 21.4 55.2 17.3333
      vertex 0.599999 52.2 15.1667
      vertex 0.599999 55.2 17.3333
    endloop
  endfacet
  facet normal 0 -0.585488 0.810681
    outer loop
      vertex 0.599999 51.2462 15.1667
      vertex 21.4 49.2 13.6889
      vertex 21.4 51.2462 15.1667
    endloop
  endfacet
  facet normal 0 -0.585488 0.810681
    outer loop
      vertex 21.4 49.2 13.6889
      vertex 0.599999 51.2462 15.1667
      vertex 0.599999 49.2 13.6889
    endloop
  endfacet
  facet normal 0 -0.585462 0.8107
    outer loop
      vertex 0.599999 54.2462 17.3333
      vertex 21.4 52.2 15.8556
      vertex 21.4 54.2462 17.3333
    endloop
  endfacet
  facet normal 0 -0.585462 0.8107
    outer loop
      vertex 21.4 52.2 15.8556
      vertex 0.599999 54.2462 17.3333
      vertex 0.599999 52.2 15.8556
    endloop
  endfacet
  facet normal 0 -0.585488 0.810681
    outer loop
      vertex 0.599999 57.2462 19.5
      vertex 21.4 55.2 18.0222
      vertex 21.4 57.2462 19.5
    endloop
  endfacet
  facet normal 0 -0.585488 0.810681
    outer loop
      vertex 21.4 55.2 18.0222
      vertex 0.599999 57.2462 19.5
      vertex 0.599999 55.2 18.0222
    endloop
  endfacet
  facet normal 0 -0.585488 0.810681
    outer loop
      vertex 0.599999 60.2462 21.6667
      vertex 21.4 58.2 20.1889
      vertex 21.4 60.2462 21.6667
    endloop
  endfacet
  facet normal 0 -0.585488 0.810681
    outer loop
      vertex 21.4 58.2 20.1889
      vertex 0.599999 60.2462 21.6667
      vertex 0.599999 58.2 20.1889
    endloop
  endfacet
  facet normal 0 -0.585462 0.8107
    outer loop
      vertex 0.599999 63.2462 23.8333
      vertex 21.4 61.2 22.3556
      vertex 21.4 63.2462 23.8333
    endloop
  endfacet
  facet normal 0 -0.585462 0.8107
    outer loop
      vertex 21.4 61.2 22.3556
      vertex 0.599999 63.2462 23.8333
      vertex 0.599999 61.2 22.3556
    endloop
  endfacet
  facet normal 0 0 -1
    outer loop
      vertex 0 38.2 12.4
      vertex 22 46.6 12.4
      vertex 22 38.2 12.4
    endloop
  endfacet
  facet normal -0 0 -1
    outer loop
      vertex 22 46.6 12.4
      vertex 0 38.2 12.4
      vertex 0 46.6 12.4
    endloop
  endfacet
  facet normal 0 1 -0
    outer loop
      vertex 22 46.6 12.4
      vertex 0 46.6 13
      vertex 22 46.6 13
    endloop
  endfacet
  facet normal 0 1 0
    outer loop
      vertex 0 46.6 13
      vertex 22 46.6 12.4
      vertex 0 46.6 12.4
    endloop
  endfacet
  facet normal -0 0 1
    outer loop
      vertex 0 25 20.6
      vertex 0.599999 0 20.6
      vertex 0.599999 25 20.6
    endloop
  endfacet
  facet normal 0 0 1
    outer loop
      vertex 0.599999 0 20.6
      vertex 0 25 20.6
      vertex 0 0 20.6
    endloop
  endfacet
  facet normal -0 0 1
    outer loop
      vertex 0 32 25
      vertex 0.599999 25 25
      vertex 0.599999 32 25
    endloop
  endfacet
  facet normal 0 0 1
    outer loop
      vertex 0.599999 25 25
      vertex 0 32 25
      vertex 0 25 25
    endloop
  endfacet
  facet normal 0 -1 0
    outer loop
      vertex 0 25 20.6
      vertex 0.599999 25 25
      vertex 0 25 25
    endloop
  endfacet
  facet normal 0 -1 -0
    outer loop
      vertex 0.599999 25 25
      vertex 0 25 20.6
      vertex 0.599999 25 20.6
    endloop
  endfacet
  facet normal 0 -1 0
    outer loop
      vertex 0 32 25
      vertex 0.599999 32 26
      vertex 0 32 26
    endloop
  endfacet
  facet normal 0 -1 -0
    outer loop
      vertex 0.599999 32 26
      vertex 0 32 25
      vertex 0.599999 32 25
    endloop
  endfacet
  facet normal -0 0 1
    outer loop
      vertex 21.4 25 20.6
      vertex 22 0 20.6
      vertex 22 25 20.6
    endloop
  endfacet
  facet normal 0 0 1
    outer loop
      vertex 22 0 20.6
      vertex 21.4 25 20.6
      vertex 21.4 0 20.6
    endloop
  endfacet
  facet normal -0 0 1
    outer loop
      vertex 21.4 32 25
      vertex 22 25 25
      vertex 22 32 25
    endloop
  endfacet
  facet normal 0 0 1
    outer loop
      vertex 22 25 25
      vertex 21.4 32 25
      vertex 21.4 25 25
    endloop
  endfacet
  facet normal 0 -1 0
    outer loop
      vertex 21.4 25 20.6
      vertex 22 25 25
      vertex 21.4 25 25
    endloop
  endfacet
  facet normal 0 -1 -0
    outer loop
      vertex 22 25 25
      vertex 21.4 25 20.6
      vertex 22 25 20.6
    endloop
  endfacet
  facet normal 0 -1 0
    outer loop
      vertex 21.4 32 25
      vertex 22 32 26
      vertex 21.4 32 26
    endloop
  endfacet
  facet normal 0 -1 -0
    outer loop
      vertex 22 32 26
      vertex 21.4 32 25
      vertex 22 32 25
    endloop
  endfacet
endsolid OpenSCAD_Model
